<?xml version="1.0" encoding="UTF-8"?>
<svg xmlns="http://www.w3.org/2000/svg" version="1.1" viewBox="0 0 200 200">
  <defs>
    <style>
      .cls-1 {
        fill: #252525;
      }

      .cls-1, .cls-2 {
        stroke: #4c4c4c;
        stroke-linejoin: round;
        stroke-width: 1.5px;
      }

      .cls-2 {
        fill: #fff;
      }
    </style>
  </defs>
  <!-- Generator: Adobe Illustrator 28.6.0, SVG Export Plug-In . SVG Version: 1.2.0 Build 709)  -->
  <g>
    <g id="Layer_1">
      <path class="cls-2" d="M151.9,116.5H48.1c-3.1,0-5.5-2.5-5.5-5.5V39.8c0-3.1,2.5-5.5,5.5-5.5h103.8c3.1,0,5.5,2.5,5.5,5.5v71.1c0,3.1-2.5,5.6-5.5,5.6Z"/>
      <polygon class="cls-2" points="100.1 123.2 109.5 123.2 109.5 121 163.6 121 163.6 125.8 100.3 125.8 100 125.8 36.7 125.8 36.7 121 90.8 121 90.8 123.2 100.1 123.2"/>
      <path class="cls-1" d="M109.6,37.1v2c0,.3-.3.6-.6.6h-17.7c-.3,0-.6-.3-.6-.6v-2h-41.7c-2.1,0-3.7,1.7-3.7,3.7v69.2c0,2.1,1.7,3.7,3.7,3.7h102c2.1,0,3.7-1.7,3.7-3.7V40.8c0-2.1-1.7-3.7-3.7-3.7h-41.4Z"/>
    </g>
  </g>
</svg>