<?xml version="1.0" encoding="UTF-8"?>
<svg xmlns="http://www.w3.org/2000/svg" version="1.1" viewBox="0 0 200 200">
  <defs>
    <style>
      .cls-1 {
        fill: #252525;
      }

      .cls-1, .cls-2 {
        stroke-miterlimit: 10;
      }

      .cls-1, .cls-2, .cls-3 {
        stroke: #4c4c4c;
        stroke-width: 1.5px;
      }

      .cls-2, .cls-3 {
        fill: #fff;
      }

      .cls-3 {
        stroke-linejoin: round;
      }
    </style>
  </defs>
  <!-- Generator: Adobe Illustrator 28.6.0, SVG Export Plug-In . SVG Version: 1.2.0 Build 709)  -->
  <g>
    <g id="Layer_1">
      <path class="cls-2" d="M156.1,119.4H43.6c-3.3,0-6-2.7-6-6V36.3c0-3.3,2.7-6,6-6h112.5c3.3,0,6,2.7,6,6v77.1c0,3.3-2.7,6-6,6Z"/>
      <path class="cls-1" d="M155.1,115.8H44.6c-2.2,0-4-1.8-4-4V37.8c0-2.2,1.8-4,4-4h110.5c2.2,0,4,1.8,4,4v74c0,2.2-1.8,4-4,4Z"/>
      <polygon class="cls-3" points="100.1 125.4 102.5 125.4 102.5 138 148.9 138 148.9 140.7 100 140.7 100 140.7 51.1 140.7 51.1 138 97.5 138 97.5 125.4 99.9 125.4 100.1 125.4"/>
    </g>
  </g>
</svg>