<?xml version="1.0" encoding="UTF-8"?>
<svg xmlns="http://www.w3.org/2000/svg" version="1.1" viewBox="0 0 200 200">
  <defs>
    <style>
      .cls-1 {
        fill: #252525;
      }

      .cls-1, .cls-2 {
        stroke: #4c4c4c;
        stroke-miterlimit: 10;
        stroke-width: 1.5px;
      }

      .cls-2 {
        fill: #fff;
      }

      .cls-3 {
        fill: #4c4c4c;
      }
    </style>
  </defs>
  <!-- Generator: Adobe Illustrator 28.6.0, SVG Export Plug-In . SVG Version: 1.2.0 Build 709)  -->
  <g>
    <g id="Layer_1">
      <path class="cls-2" d="M66,154.4V42.3c0-4.4,3.6-8,8-8h52c4.4,0,8,3.6,8,8v112.1c0,4.4-3.6,8-8,8h-52c-4.4,0-8-3.6-8-8Z"/>
      <path class="cls-1" d="M68.7,153.3V43.4c0-3.3,2.7-6,6-6h50.6c3.3,0,6,2.7,6,6v109.8c0,3.3-2.7,6-6,6h-50.6c-3.3,0-6-2.6-6-5.9Z"/>
      <path class="cls-3" d="M109.9,45.4h-19.5c-1.2,0-2.2-1-2.2-2.2h0c0-1.2,1-2.2,2.2-2.2h19.6c1.2,0,2.2,1,2.2,2.2h0c0,1.2-1,2.2-2.3,2.2Z"/>
    </g>
  </g>
</svg>